<svg xmlns="http://www.w3.org/2000/svg" version="1.1" xmlns:xlink="http://www.w3.org/1999/xlink" width="498.4774183988643" height="200" viewBox="1.0168235301971436 13.313239097595215 81.37083435058594 26.659969329833984"><path d="M5.31 13.55L5.31 13.55Q5.72 13.14 6.44 13.44Q7.15 13.73 6.69 15.96Q6.23 18.18 5.68 20.41Q5.14 22.64 5.93 22.57Q6.72 22.50 7.39 21.95Q8.07 21.41 8.89 20.79Q9.71 20.18 10.44 19.72Q11.17 19.26 11.33 19.97Q11.48 20.68 11.23 21.16Q10.98 21.64 9.16 22.85Q7.34 24.06 7.43 24.37Q7.52 24.67 7.62 24.97Q7.71 25.27 8.43 26.30Q9.14 27.32 10.30 28.43Q11.46 29.53 11.35 29.79Q11.23 30.06 10.94 30.15Q10.64 30.23 10.20 30.30Q9.75 30.37 8.85 29.60Q7.95 28.83 7.12 27.70Q6.29 26.56 5.71 25.89Q5.14 25.21 4.91 25.05Q4.69 24.88 4.07 26.87Q3.46 28.85 2.99 29.84Q2.52 30.84 1.95 30.69Q1.39 30.55 1.23 30.39Q1.07 30.23 1.18 29.77Q1.29 29.30 1.89 28.02Q2.50 26.74 3.29 23.03Q4.08 19.32 4.29 17.80Q4.49 16.29 3.88 17.45Q3.26 18.61 1.83 20.63Q0.39 22.66 1.50 20.94Q2.62 19.22 3.09 18.37Q3.55 17.52 4.23 15.74Q4.90 13.96 5.31 13.55ZM15.70 21.54L15.70 21.54Q17.01 21.45 17.29 21.98Q17.58 22.52 17.56 23.35Q17.54 24.18 16.78 24.76Q16.02 25.33 14.77 25.90L14.77 25.90Q14.41 26.04 14.13 26.04Q13.85 26.05 13.66 26.03Q13.48 26.00 13.37 25.97Q13.26 25.94 13.24 26.00L13.24 26.00Q12.89 26.56 12.88 27.13Q12.87 27.70 13.25 28.17Q13.63 28.65 14.10 28.73Q14.57 28.81 15.08 28.70Q15.59 28.59 16.95 28.03Q18.32 27.46 18.86 26.96Q19.39 26.46 19.88 26.00Q20.37 25.53 20.02 26.00Q19.67 26.46 19.15 27.13Q18.63 27.79 17.86 28.45Q17.09 29.10 16.60 29.45Q16.11 29.80 15.30 30.09Q14.49 30.37 13.71 30.26Q12.93 30.16 12.54 29.90Q12.15 29.65 11.82 29.30Q11.48 28.95 11.27 28.47Q11.05 27.99 11.04 27.16Q11.04 26.33 11.44 25.35Q11.84 24.38 12.34 23.73Q12.85 23.09 13.72 22.43Q14.59 21.78 15.70 21.54ZM15.72 23.30L15.72 23.30Q15.59 23.16 15.05 23.44Q14.51 23.71 14.27 24.05Q14.02 24.39 14.18 24.55Q14.34 24.71 14.84 24.42Q15.35 24.14 15.65 23.86Q15.96 23.57 15.72 23.30ZM23.77 21.54L23.77 21.54Q25.08 21.45 25.36 21.98Q25.64 22.52 25.63 23.35Q25.61 24.18 24.84 24.76Q24.08 25.33 22.83 25.90L22.83 25.90Q22.48 26.04 22.20 26.04Q21.91 26.05 21.73 26.03Q21.54 26.00 21.44 25.97Q21.33 25.94 21.31 26.00L21.31 26.00Q20.96 26.56 20.95 27.13Q20.94 27.70 21.32 28.17Q21.70 28.65 22.17 28.73Q22.64 28.81 23.14 28.70Q23.65 28.59 25.02 28.03Q26.39 27.46 26.92 26.96Q27.46 26.46 27.95 26.00Q28.44 25.53 28.09 26.00Q27.73 26.46 27.22 27.13Q26.70 27.79 25.93 28.45Q25.16 29.10 24.67 29.45Q24.18 29.80 23.37 30.09Q22.56 30.37 21.78 30.26Q21.00 30.16 20.61 29.90Q20.21 29.65 19.88 29.30Q19.55 28.95 19.34 28.47Q19.12 27.99 19.11 27.16Q19.10 26.33 19.50 25.35Q19.90 24.38 20.41 23.73Q20.92 23.09 21.79 22.43Q22.66 21.78 23.77 21.54ZM23.79 23.30L23.79 23.30Q23.65 23.16 23.12 23.44Q22.58 23.71 22.33 24.05Q22.09 24.39 22.25 24.55Q22.40 24.71 22.91 24.42Q23.42 24.14 23.72 23.86Q24.02 23.57 23.79 23.30ZM28.54 22.48L28.54 22.48Q30.27 21.31 30.66 21.17Q31.05 21.04 31.32 21.27Q31.58 21.50 31.63 21.85Q31.68 22.19 31.43 23.34Q31.17 24.49 31.43 24.28Q31.68 24.06 32.15 23.85Q32.62 23.63 33.33 23.38Q34.04 23.13 34.67 23.16Q35.29 23.20 35.62 23.47Q35.94 23.73 36.03 23.90Q36.11 24.06 36.26 24.38Q36.41 24.69 36.41 24.76Q36.41 24.82 36.45 25.05Q36.48 25.27 36.41 25.79Q36.33 26.31 35.99 27.04Q35.64 27.77 34.96 28.41Q34.28 29.04 33.79 29.32Q33.30 29.59 32.74 29.80Q32.19 30.02 31.59 30.11Q31.00 30.20 30.65 29.94Q30.31 29.69 30.30 29.37Q30.29 29.04 30.51 28.63Q30.72 28.22 30.95 27.90Q31.17 27.58 31.70 27.14Q32.23 26.70 32.80 26.45Q33.38 26.19 33.71 26.12Q34.04 26.05 33.27 26.58Q32.50 27.11 31.92 27.62Q31.35 28.13 31.55 28.36Q31.76 28.59 32.29 28.39Q32.83 28.18 33.86 27.17Q34.88 26.15 34.52 25.42Q34.16 24.69 33.13 25.07Q32.11 25.45 31.31 26.15Q30.51 26.86 29.63 28.99Q28.75 31.13 28.38 32.16Q28.01 33.18 27.39 34.98Q26.78 36.78 25.96 38.47Q25.14 40.16 24.62 39.95Q24.10 39.75 23.98 39.39Q23.87 39.04 23.92 38.65Q23.96 38.26 24.24 37.67Q24.51 37.07 24.98 35.68Q25.45 34.30 26.96 30.34Q28.48 26.39 28.76 25.65Q29.04 24.92 29.49 23.50Q29.94 22.07 29.58 22.20Q29.22 22.32 28.01 22.98Q26.80 23.63 28.54 22.48ZM40.98 17.36L40.98 17.36Q41.21 17.09 41.72 17.13Q42.23 17.17 42.46 17.44Q42.70 17.71 42.85 18.11Q43.01 18.50 42.79 18.93Q42.58 19.36 42.38 20.05Q42.19 20.74 41.88 21.99Q41.56 23.24 41.91 23.40Q42.27 23.55 43.13 23.71Q43.98 23.87 45.87 23.83Q47.75 23.79 45.66 24.10Q43.57 24.41 42.57 24.67Q41.56 24.92 41.24 25.03Q40.92 25.14 40.15 27.20Q39.38 29.26 39.13 29.94Q38.89 30.63 38.61 30.86Q38.34 31.09 37.91 31.21Q37.48 31.33 37.13 31.17Q36.78 31.02 37.14 29.90Q37.50 28.79 38.13 27.27Q38.75 25.74 38.81 25.37Q38.87 25 38.30 25.10Q37.73 25.20 37.29 25.21Q36.86 25.21 36.87 24.66Q36.88 24.10 37.58 23.75Q38.28 23.40 38.83 23.39Q39.38 23.38 39.80 21.87Q40.23 20.35 40.31 19.85Q40.39 19.36 40.57 18.50Q40.74 17.64 40.98 17.36ZM44.69 24.30L44.69 24.30Q45.39 21.58 46.04 21.64Q46.70 21.70 47.03 22.23Q47.36 22.75 46.96 23.53Q46.56 24.30 46.88 24.25Q47.21 24.20 47.73 23.86Q48.26 23.52 48.74 23.31Q49.22 23.11 49.51 23.05Q49.80 22.99 50.63 23.24Q51.46 23.50 52.21 23.96Q52.95 24.41 54.17 24.03Q55.39 23.65 53.91 24.29Q52.42 24.92 50.87 24.88Q49.32 24.84 48.47 25.25Q47.62 25.66 47.03 26.16Q46.45 26.66 45.95 27.80Q45.45 28.95 45.19 29.73Q44.92 30.51 44.72 31.01Q44.51 31.50 43.88 31.53Q43.24 31.56 43.04 31.07Q42.83 30.59 42.94 30.44Q43.05 30.29 43.53 28.65Q44.00 27.01 44.69 24.30ZM58.77 21.66L58.77 21.66Q59.22 21.54 59.76 21.62Q60.29 21.70 60.62 21.95Q60.94 22.21 61.23 22.95Q61.52 23.69 60.97 23.95Q60.41 24.20 59.96 23.77Q59.51 23.34 59.02 23.59Q58.54 23.85 58.06 24.11Q57.58 24.38 56.88 24.94Q56.17 25.51 55.43 26.39Q54.69 27.27 54.61 27.51Q54.53 27.75 54.99 27.44Q55.45 27.13 56.40 26.49Q57.34 25.86 58.78 25.20Q60.21 24.53 60.60 24.68Q60.98 24.82 61.25 25.21Q61.52 25.61 61.56 25.89Q61.60 26.17 61.47 26.34Q61.35 26.50 61.18 27.09Q61.02 27.68 61.21 28.22Q61.41 28.77 61.71 28.97Q62.01 29.18 62.54 29.09Q63.07 29.00 63.84 28.29Q64.61 27.58 63.77 28.62Q62.93 29.67 62.44 29.95Q61.95 30.23 61.68 30.22Q61.41 30.21 60.97 30.05Q60.53 29.88 60.14 29.53Q59.75 29.18 59.52 28.67Q59.30 28.16 59.22 27.92Q59.14 27.68 58.86 27.38Q58.57 27.09 58.16 27.26Q57.75 27.42 56.73 28.16Q55.70 28.91 54.81 29.38Q53.93 29.86 53.22 30.05Q52.52 30.23 52.31 30.18Q52.11 30.12 51.87 29.74Q51.62 29.36 51.58 28.91Q51.54 28.46 51.71 28.00Q51.88 27.54 52.96 26.16Q54.04 24.79 55.05 23.91Q56.05 23.03 57.19 22.41Q58.32 21.80 58.77 21.66ZM69.80 15.55L69.80 15.55Q70.23 15.90 70.32 17.08Q70.41 18.26 71.13 19.38Q71.86 20.51 72.83 21.17Q73.81 21.84 74.62 22.11Q75.43 22.38 74.57 22.24Q73.71 22.09 72.86 21.55Q72.01 21.02 71.04 19.95Q70.06 18.89 69.61 18.39Q69.16 17.89 68.97 17.83Q68.79 17.77 68.66 17.74Q68.54 17.71 68.08 17.35Q67.62 16.99 67.74 16.46Q67.87 15.94 68.09 15.68Q68.30 15.43 68.84 15.30Q69.38 15.18 69.80 15.55ZM66.68 21.46L66.68 21.46Q67.11 21.37 67.67 21.52Q68.22 21.68 67.86 22.66Q67.50 23.63 67.07 25.20Q66.64 26.76 66.26 27.73Q65.88 28.71 65.41 29.42Q64.94 30.14 64.51 30.20Q64.08 30.25 63.92 30.17Q63.75 30.08 63.89 29.26Q64.02 28.44 64.46 26.75Q64.90 25.06 65.29 23.81Q65.68 22.56 65.30 22.53Q64.92 22.50 65.60 22.03Q66.27 21.56 66.68 21.46ZM71.78 21.95L71.78 21.95Q72.19 21.76 72.82 22.03Q73.46 22.30 73.10 23.05Q72.73 23.79 71.91 25.50Q71.09 27.21 71.75 26.44Q72.40 25.66 73.33 24.86Q74.26 24.06 74.67 23.83Q75.08 23.59 75.56 23.48Q76.04 23.36 76.64 23.54Q77.25 23.71 77.68 24.52Q78.11 25.33 78.13 27.20Q78.16 29.06 79.05 29.02Q79.94 28.98 80.78 28.37Q81.62 27.75 82.03 27.12Q82.44 26.48 82.38 26.78Q82.32 27.07 81.93 27.64Q81.54 28.20 80.27 29.39Q79.00 30.59 78.08 30.61Q77.15 30.63 76.73 29.86Q76.31 29.10 76.18 27.43Q76.05 25.76 75.74 25.73Q75.43 25.70 74.38 26.36Q73.32 27.01 72.44 28.07Q71.56 29.12 71.01 29.85Q70.45 30.59 70 30.74Q69.55 30.90 69.27 30.51Q68.98 30.12 69.07 29.55Q69.16 28.98 69.41 27.81Q69.67 26.64 70.14 25.34Q70.61 24.04 69.92 24.49Q69.24 24.94 68.25 25.85Q67.27 26.76 68.96 24.99Q70.64 23.22 70.83 22.93Q71.02 22.64 71.19 22.39Q71.37 22.15 71.78 21.95Z" fill="black"></path></svg>